<svg width="45" height="30" viewBox="0 0 45 30" fill="none" xmlns="http://www.w3.org/2000/svg">
<rect width="45" height="30" rx="4" fill="#171717"/>
<path d="M34.7901 20.6701C34.2623 20.6701 33.7868 20.5753 33.3638 20.3857C32.9443 20.1925 32.6117 19.9081 32.3658 19.5326C32.1236 19.1571 32.0024 18.6941 32.0024 18.1436C32.0024 17.6696 32.0892 17.2777 32.2628 16.9678C32.4363 16.6579 32.6732 16.41 32.9733 16.224C33.2734 16.0381 33.6114 15.8977 33.9875 15.8029C34.3671 15.7045 34.7594 15.6334 35.1644 15.5896C35.6525 15.5386 36.0484 15.493 36.3521 15.4529C36.6559 15.4092 36.8764 15.3436 37.0138 15.2561C37.1548 15.1649 37.2253 15.0245 37.2253 14.835V14.8021C37.2253 14.3902 37.1042 14.0712 36.8619 13.8451C36.6197 13.6191 36.2708 13.5061 35.8152 13.5061C35.3343 13.5061 34.9529 13.6118 34.6708 13.8232C34.3924 14.0347 34.2044 14.2844 34.1068 14.5725L32.2736 14.31C32.4182 13.7995 32.6569 13.373 32.9895 13.0303C33.3222 12.6839 33.7289 12.4251 34.2098 12.2537C34.6907 12.0787 35.2222 11.9912 35.8044 11.9912C36.2057 11.9912 36.6052 12.0386 37.003 12.1334C37.4007 12.2282 37.7641 12.385 38.0931 12.6037C38.4221 12.8188 38.6861 13.1123 38.8849 13.4842C39.0874 13.8561 39.1887 14.3209 39.1887 14.8787V20.5006H37.3013V19.3467H37.2362C37.1169 19.58 36.9487 19.7988 36.7318 20.0029C36.5185 20.2035 36.2491 20.3657 35.9237 20.4896C35.6019 20.61 35.224 20.6701 34.7901 20.6701ZM35.3 19.2154C35.6941 19.2154 36.0358 19.137 36.325 18.9803C36.6143 18.8199 36.8366 18.6084 36.9921 18.3459C37.1512 18.0834 37.2307 17.7972 37.2307 17.4873V16.4975C37.1693 16.5485 37.0644 16.5959 36.9162 16.6396C36.7716 16.6834 36.6088 16.7217 36.4281 16.7545C36.2473 16.7873 36.0683 16.8165 35.8911 16.842C35.714 16.8675 35.5603 16.8894 35.4301 16.9076C35.1373 16.9477 34.8751 17.0133 34.6437 17.1045C34.4123 17.1956 34.2297 17.3232 34.0959 17.4873C33.9622 17.6477 33.8953 17.8555 33.8953 18.1107C33.8953 18.4753 34.0272 18.7506 34.2912 18.9365C34.5551 19.1225 34.8914 19.2154 35.3 19.2154Z" fill="white"/>
<path d="M25.8643 20.6475C25.2098 20.6475 24.6241 20.4779 24.107 20.1389C23.59 19.7998 23.1814 19.3076 22.8813 18.6623C22.5812 18.017 22.4312 17.2331 22.4312 16.3107C22.4312 15.3774 22.583 14.5899 22.8867 13.9482C23.1941 13.3029 23.6081 12.8162 24.1287 12.4881C24.6494 12.1563 25.2297 11.9904 25.8697 11.9904C26.3578 11.9904 26.7591 12.0743 27.0737 12.242C27.3883 12.4061 27.6378 12.6048 27.8222 12.8381C28.0066 13.0678 28.1494 13.2847 28.2506 13.4889H28.332V9.2998H30.3007V20.4998H28.3699V19.1764H28.2506C28.1494 19.3805 28.0029 19.5975 27.8113 19.8271C27.6197 20.0532 27.3666 20.2464 27.052 20.4068C26.7375 20.5673 26.3415 20.6475 25.8643 20.6475ZM26.412 19.0232C26.8278 19.0232 27.1822 18.9102 27.4751 18.6842C27.7679 18.4545 27.9903 18.1355 28.1422 17.7271C28.294 17.3188 28.3699 16.843 28.3699 16.2998C28.3699 15.7566 28.294 15.2844 28.1422 14.8834C27.9939 14.4824 27.7734 14.1706 27.4805 13.9482C27.1912 13.7258 26.8351 13.6146 26.412 13.6146C25.9745 13.6146 25.6094 13.7295 25.3165 13.9592C25.0236 14.1889 24.8031 14.5061 24.6548 14.9107C24.5066 15.3154 24.4324 15.7785 24.4324 16.2998C24.4324 16.8248 24.5066 17.2933 24.6548 17.7053C24.8067 18.1136 25.029 18.4363 25.3219 18.6732C25.6184 18.9066 25.9818 19.0232 26.412 19.0232Z" fill="white"/>
<path d="M17.0605 20.4998V12.0998H18.9642V13.4998H19.051C19.2029 13.0149 19.4632 12.6412 19.832 12.3787C20.2044 12.1126 20.6292 11.9795 21.1065 11.9795C21.215 11.9795 21.3361 11.985 21.4699 11.9959C21.6073 12.0032 21.7212 12.016 21.8116 12.0342V13.8553C21.7284 13.8261 21.5964 13.8006 21.4157 13.7787C21.2385 13.7532 21.0667 13.7404 20.9004 13.7404C20.5425 13.7404 20.2207 13.8188 19.935 13.9756C19.653 14.1287 19.4306 14.342 19.2679 14.6154C19.1052 14.8889 19.0239 15.2042 19.0239 15.5615V20.4998H17.0605Z" fill="white"/>
<path d="M7.52175 20.4998H5.37402L9.28441 9.2998H11.7684L15.6842 20.4998H13.5365L10.5698 11.5967H10.483L7.52175 20.4998ZM7.59226 16.1084H13.4497V17.7381H7.59226V16.1084Z" fill="white"/>
</svg>
