<svg width="36" height="13" viewBox="0 0 36 13" fill="none" xmlns="http://www.w3.org/2000/svg">
<path d="M0.304 12L4.4 0.639999H6.944L11.04 12H8.864L7.92 9.312H3.424L2.48 12H0.304ZM4.032 7.536H7.312L5.68 2.736L4.032 7.536ZM12.1513 12V3.456H14.0713L14.1513 5.824L13.9753 5.792C14.1033 4.97067 14.3433 4.37867 14.6953 4.016C15.0579 3.64267 15.5486 3.456 16.1673 3.456H16.9513V5.216H16.1513C15.7139 5.216 15.3513 5.28 15.0633 5.408C14.7753 5.536 14.5566 5.73867 14.4073 6.016C14.2686 6.28267 14.1993 6.63467 14.1993 7.072V12H12.1513ZM21.0975 12.192C20.3722 12.192 19.7428 12.0107 19.2095 11.648C18.6868 11.2853 18.2815 10.768 17.9935 10.096C17.7055 9.424 17.5615 8.63467 17.5615 7.728C17.5615 6.82133 17.7055 6.032 17.9935 5.36C18.2815 4.688 18.6922 4.17067 19.2255 3.808C19.7588 3.44533 20.3828 3.264 21.0975 3.264C21.6948 3.264 22.2175 3.38667 22.6655 3.632C23.1242 3.87733 23.4708 4.224 23.7055 4.672V0.639999H25.7535V12H23.8015L23.7535 10.736C23.5188 11.1947 23.1668 11.552 22.6975 11.808C22.2282 12.064 21.6948 12.192 21.0975 12.192ZM21.7215 10.528C22.1482 10.528 22.5055 10.4213 22.7935 10.208C23.0922 9.99467 23.3162 9.68 23.4655 9.264C23.6255 8.83733 23.7055 8.32533 23.7055 7.728C23.7055 7.12 23.6255 6.608 23.4655 6.192C23.3162 5.776 23.0922 5.46133 22.7935 5.248C22.5055 5.03467 22.1482 4.928 21.7215 4.928C21.1028 4.928 20.6068 5.17867 20.2335 5.68C19.8708 6.17067 19.6895 6.85333 19.6895 7.728C19.6895 8.58133 19.8708 9.264 20.2335 9.776C20.6068 10.2773 21.1028 10.528 21.7215 10.528ZM30.3188 12.192C29.4228 12.192 28.7028 11.9893 28.1588 11.584C27.6148 11.168 27.3428 10.592 27.3428 9.856C27.3428 9.12 27.5721 8.544 28.0308 8.128C28.4894 7.712 29.1881 7.41333 30.1268 7.232L32.9588 6.672C32.9588 6.064 32.8201 5.61067 32.5428 5.312C32.2654 5.00267 31.8548 4.848 31.3108 4.848C30.8201 4.848 30.4308 4.96533 30.1428 5.2C29.8654 5.424 29.6734 5.74933 29.5668 6.176L27.4868 6.08C27.6574 5.17333 28.0734 4.48 28.7348 4C29.3961 3.50933 30.2548 3.264 31.3108 3.264C32.5268 3.264 33.4441 3.57333 34.0628 4.192C34.6921 4.8 35.0068 5.67467 35.0068 6.816V9.92C35.0068 10.144 35.0441 10.2987 35.1188 10.384C35.2041 10.4693 35.3268 10.512 35.4868 10.512H35.7587V12C35.6948 12.0213 35.5881 12.0373 35.4388 12.048C35.3001 12.0587 35.1561 12.064 35.0068 12.064C34.6548 12.064 34.3401 12.0107 34.0628 11.904C33.7854 11.7867 33.5721 11.5893 33.4228 11.312C33.2734 11.024 33.1988 10.6347 33.1988 10.144L33.3748 10.272C33.2894 10.6453 33.1028 10.9813 32.8148 11.28C32.5374 11.568 32.1854 11.792 31.7588 11.952C31.3321 12.112 30.8521 12.192 30.3188 12.192ZM30.7348 10.704C31.1934 10.704 31.5881 10.6133 31.9188 10.432C32.2494 10.2507 32.5054 10 32.6868 9.68C32.8681 9.36 32.9588 8.98133 32.9588 8.544V8.064L30.7508 8.512C30.2921 8.608 29.9614 8.752 29.7588 8.944C29.5668 9.12533 29.4708 9.36533 29.4708 9.664C29.4708 9.99467 29.5774 10.2507 29.7908 10.432C30.0148 10.6133 30.3294 10.704 30.7348 10.704Z" fill="white"/>
</svg>
