<svg width="80" height="80" viewBox="0 0 80 80" fill="none" xmlns="http://www.w3.org/2000/svg">
<path d="M79.719 38.928C79.8736 60.9475 52.1017 74.6203 33.6547 74.6203C15.2077 74.6203 -2.84312 60.6132 0.374711 38.928C2.18172 26.7078 10.1345 20.8282 28.5718 20.148C37.6166 19.8137 38.6119 4.12338 53.0777 6.18699C72.7036 8.98842 79.632 26.7078 79.719 38.928Z" fill="#E0E7FF"/>
<path d="M20.4414 20.4414H24.7747L30.5381 47.3514C30.7495 48.3369 31.2979 49.2179 32.0888 49.8428C32.8797 50.4676 33.8637 50.7972 34.8714 50.7747H56.0614C57.0476 50.7731 58.0038 50.4352 58.772 49.8167C59.5401 49.1982 60.0744 48.3362 60.2864 47.3731L63.8614 31.2747H27.0931M35.5002 61.4996C35.5002 62.6963 34.5301 63.6663 33.3335 63.6663C32.1369 63.6663 31.1668 62.6963 31.1668 61.4996C31.1668 60.303 32.1369 59.333 33.3335 59.333C34.5301 59.333 35.5002 60.303 35.5002 61.4996ZM59.3335 61.4996C59.3335 62.6963 58.3634 63.6663 57.1668 63.6663C55.9702 63.6663 55.0002 62.6963 55.0002 61.4996C55.0002 60.303 55.9702 59.333 57.1668 59.333C58.3634 59.333 59.3335 60.303 59.3335 61.4996Z" stroke="white" stroke-width="3" stroke-linecap="round" stroke-linejoin="round"/>
<path d="M18.4414 18.4414H22.7747L28.5381 45.3514C28.7495 46.3369 29.2979 47.2179 30.0888 47.8428C30.8797 48.4676 31.8637 48.7972 32.8714 48.7747H54.0614C55.0476 48.7731 56.0038 48.4352 56.772 47.8167C57.5401 47.1982 58.0744 46.3362 58.2864 45.3731L61.8614 29.2747H25.0931M33.5002 59.4996C33.5002 60.6963 32.5301 61.6663 31.3335 61.6663C30.1369 61.6663 29.1668 60.6963 29.1668 59.4996C29.1668 58.303 30.1369 57.333 31.3335 57.333C32.5301 57.333 33.5002 58.303 33.5002 59.4996ZM57.3335 59.4996C57.3335 60.6963 56.3634 61.6663 55.1668 61.6663C53.9702 61.6663 53.0002 60.6963 53.0002 59.4996C53.0002 58.303 53.9702 57.333 55.1668 57.333C56.3634 57.333 57.3335 58.303 57.3335 59.4996Z" stroke="#0A0A0A" stroke-width="3" stroke-linecap="round" stroke-linejoin="round"/>
</svg>
