<svg width="59" height="64" viewBox="0 0 59 64" fill="none" xmlns="http://www.w3.org/2000/svg">
<rect x="12" y="15" width="35" height="34" rx="4" fill="#737373"/>
<g clip-path="url(#clip0_776_50498)">
<g clip-path="url(#clip1_776_50498)">
<path d="M35.1375 38.6676H26.4363C26.3713 38.6676 26.16 38.8689 26.1169 38.9368C25.0947 40.5271 24.2084 42.2881 23.1572 43.8505C23.0316 44.0369 22.9131 44.2045 22.6819 44.2731C22.3315 44.3767 20.5634 44.3566 20.1351 44.3145C19.7242 44.2744 19.4904 44.0699 19.6063 43.6356L32.3672 22.3015C32.5128 22.0905 32.7524 21.8381 33.0203 21.809L37.5806 21.8239C37.806 21.9235 38.0379 22.1132 38.0443 22.3824L38.0404 43.8039C37.9818 44.0628 37.7371 44.2887 37.4717 44.3191C37.1071 44.3605 36.0708 44.3637 35.7127 44.3165C34.9024 44.2097 35.1336 43.2072 35.1394 42.6596C35.1536 41.3296 35.1265 39.9983 35.1381 38.6689L35.1375 38.6676ZM35.0357 25.8851C34.8869 25.7563 34.6602 25.8444 34.505 25.8463C34.1417 25.8515 33.5878 25.7635 33.3314 26.0651L28.0917 35.3636C28.0633 35.594 28.1265 35.6691 28.3512 35.6891H34.7832C34.9333 35.6762 35.0666 35.6464 35.1046 35.484C35.1594 32.3372 35.1594 29.1652 35.1046 26.0185C35.0937 25.9829 35.0615 25.9078 35.0364 25.8858L35.0357 25.8851Z" fill="white"/>
</g>
</g>
<defs>
<clipPath id="clip0_776_50498">
<rect width="20" height="22" fill="white" transform="translate(19.5 21)"/>
</clipPath>
<clipPath id="clip1_776_50498">
<rect width="67.3986" height="23.7094" fill="white" transform="translate(19.576 21.1275)"/>
</clipPath>
</defs>
</svg>
