<svg width="952" height="773" viewBox="0 0 952 773" fill="none" xmlns="http://www.w3.org/2000/svg">
<g opacity="0.3" filter="url(#filter0_dd_1515_307232)">
<g clip-path="url(#clip0_1515_307232)">
<path d="M179.091 140.931L158.317 137.133C157.52 136.987 156.756 137.516 156.61 138.315L150.733 170.456C150.587 171.255 151.114 172.021 151.911 172.167L172.685 175.965C173.482 176.111 174.246 175.581 174.392 174.782L180.269 142.642C180.415 141.843 179.888 141.077 179.091 140.931Z" fill="white"/>
<path d="M170.842 140.85L159.519 138.78C158.68 138.626 157.875 139.184 157.721 140.025C157.567 140.867 158.122 141.673 158.962 141.827L170.285 143.897C171.124 144.051 171.929 143.493 172.083 142.652C172.237 141.81 171.681 141.004 170.842 140.85Z" fill="url(#paint0_linear_1515_307232)"/>
<path d="M166.338 170.658L159.725 169.449C159.236 169.359 158.766 169.685 158.676 170.176L158.676 170.177C158.586 170.668 158.91 171.139 159.4 171.228L166.013 172.437C166.502 172.527 166.972 172.201 167.062 171.71L167.062 171.709C167.152 171.218 166.828 170.748 166.338 170.658Z" fill="url(#paint1_linear_1515_307232)"/>
<path d="M178.915 142.326L175.876 141.771L175.319 144.817L178.358 145.373L178.915 142.326Z" fill="#DBDBDD"/>
<path d="M158.929 144.644L156.943 144.281L156.579 146.272L158.565 146.635L158.929 144.644Z" fill="url(#paint2_linear_1515_307232)"/>
<path d="M173.406 147.703L160.612 145.364C160.283 145.304 159.967 145.522 159.907 145.852C159.846 146.182 160.064 146.498 160.393 146.558L173.188 148.898C173.517 148.958 173.832 148.739 173.893 148.409C173.953 148.08 173.735 147.764 173.406 147.703Z" fill="url(#paint3_linear_1515_307232)"/>
<path d="M158.36 147.756L156.374 147.393L156.01 149.384L157.996 149.747L158.36 147.756Z" fill="url(#paint4_linear_1515_307232)"/>
<path d="M167.627 149.862L159.95 148.458C159.672 148.407 159.406 148.592 159.355 148.87L159.321 149.057C159.27 149.335 159.454 149.602 159.731 149.652L167.409 151.056C167.686 151.107 167.953 150.923 168.003 150.644L168.038 150.457C168.088 150.179 167.905 149.913 167.627 149.862Z" fill="url(#paint5_linear_1515_307232)"/>
<path d="M157.791 150.867L155.805 150.503L155.441 152.495L157.427 152.858L157.791 150.867Z" fill="url(#paint6_linear_1515_307232)"/>
<path d="M170.483 153.599L159.474 151.586C159.145 151.526 158.83 151.744 158.769 152.074C158.709 152.404 158.927 152.72 159.256 152.78L170.264 154.793C170.594 154.853 170.909 154.635 170.97 154.305C171.03 153.975 170.812 153.659 170.483 153.599Z" fill="url(#paint7_linear_1515_307232)"/>
<path d="M157.222 153.977L155.236 153.614L154.872 155.605L156.858 155.969L157.222 153.977Z" fill="url(#paint8_linear_1515_307232)"/>
<path d="M165.152 155.839L158.771 154.672C158.516 154.626 158.272 154.795 158.225 155.05L158.176 155.32C158.129 155.575 158.298 155.82 158.552 155.867L164.934 157.033C165.188 157.08 165.432 156.911 165.479 156.655L165.528 156.386C165.575 156.13 165.407 155.886 165.152 155.839Z" fill="url(#paint9_linear_1515_307232)"/>
</g>
<rect x="157.276" y="137.45" width="23.0518" height="34.6151" transform="rotate(10.3623 157.276 137.45)" stroke="#E5E5E5"/>
</g>
<defs>
<filter id="filter0_dd_1515_307232" x="138.468" y="134.869" width="54.0657" height="63.3604" filterUnits="userSpaceOnUse" color-interpolation-filters="sRGB">
<feFlood flood-opacity="0" result="BackgroundImageFix"/>
<feColorMatrix in="SourceAlpha" type="matrix" values="0 0 0 0 0 0 0 0 0 0 0 0 0 0 0 0 0 0 127 0" result="hardAlpha"/>
<feMorphology radius="4" operator="erode" in="SourceAlpha" result="effect1_dropShadow_1515_307232"/>
<feOffset dy="4"/>
<feGaussianBlur stdDeviation="3"/>
<feColorMatrix type="matrix" values="0 0 0 0 0 0 0 0 0 0 0 0 0 0 0 0 0 0 0.1 0"/>
<feBlend mode="normal" in2="BackgroundImageFix" result="effect1_dropShadow_1515_307232"/>
<feColorMatrix in="SourceAlpha" type="matrix" values="0 0 0 0 0 0 0 0 0 0 0 0 0 0 0 0 0 0 127 0" result="hardAlpha"/>
<feMorphology radius="3" operator="erode" in="SourceAlpha" result="effect2_dropShadow_1515_307232"/>
<feOffset dy="10"/>
<feGaussianBlur stdDeviation="7.5"/>
<feColorMatrix type="matrix" values="0 0 0 0 0 0 0 0 0 0 0 0 0 0 0 0 0 0 0.1 0"/>
<feBlend mode="normal" in2="effect1_dropShadow_1515_307232" result="effect2_dropShadow_1515_307232"/>
<feBlend mode="normal" in="SourceGraphic" in2="effect2_dropShadow_1515_307232" result="shape"/>
</filter>
<linearGradient id="paint0_linear_1515_307232" x1="157.871" y1="140.053" x2="172.97" y2="142.814" gradientUnits="userSpaceOnUse">
<stop stop-color="#C9C9C9"/>
<stop offset="1" stop-color="#EBEBEB"/>
</linearGradient>
<linearGradient id="paint1_linear_1515_307232" x1="151.039" y1="168.78" x2="167.667" y2="171.82" gradientUnits="userSpaceOnUse">
<stop stop-color="#C9C9C9"/>
<stop offset="1" stop-color="#EBEBEB"/>
</linearGradient>
<linearGradient id="paint2_linear_1515_307232" x1="155.383" y1="145.024" x2="172.01" y2="148.065" gradientUnits="userSpaceOnUse">
<stop stop-color="#C9C9C9"/>
<stop offset="1" stop-color="#EBEBEB"/>
</linearGradient>
<linearGradient id="paint3_linear_1515_307232" x1="156.473" y1="145.224" x2="173.782" y2="148.389" gradientUnits="userSpaceOnUse">
<stop stop-color="#C9C9C9"/>
<stop offset="1" stop-color="#EBEBEB"/>
</linearGradient>
<linearGradient id="paint4_linear_1515_307232" x1="154.814" y1="148.136" x2="171.441" y2="151.176" gradientUnits="userSpaceOnUse">
<stop stop-color="#C9C9C9"/>
<stop offset="1" stop-color="#EBEBEB"/>
</linearGradient>
<linearGradient id="paint5_linear_1515_307232" x1="157.206" y1="148.573" x2="167.952" y2="150.538" gradientUnits="userSpaceOnUse">
<stop stop-color="#C9C9C9"/>
<stop offset="1" stop-color="#EBEBEB"/>
</linearGradient>
<linearGradient id="paint6_linear_1515_307232" x1="154.245" y1="151.247" x2="170.872" y2="154.287" gradientUnits="userSpaceOnUse">
<stop stop-color="#C9C9C9"/>
<stop offset="1" stop-color="#EBEBEB"/>
</linearGradient>
<linearGradient id="paint7_linear_1515_307232" x1="154.245" y1="151.247" x2="170.872" y2="154.288" gradientUnits="userSpaceOnUse">
<stop stop-color="#C9C9C9"/>
<stop offset="1" stop-color="#EBEBEB"/>
</linearGradient>
<linearGradient id="paint8_linear_1515_307232" x1="153.676" y1="154.358" x2="170.304" y2="157.398" gradientUnits="userSpaceOnUse">
<stop stop-color="#C9C9C9"/>
<stop offset="1" stop-color="#EBEBEB"/>
</linearGradient>
<linearGradient id="paint9_linear_1515_307232" x1="156.407" y1="154.857" x2="165.446" y2="156.51" gradientUnits="userSpaceOnUse">
<stop stop-color="#C9C9C9"/>
<stop offset="1" stop-color="#EBEBEB"/>
</linearGradient>
<clipPath id="clip0_1515_307232">
<rect x="156.874" y="136.869" width="24.0518" height="35.6151" transform="rotate(10.3623 156.874 136.869)" fill="white"/>
</clipPath>
</defs>
</svg>
