<svg width="55" height="30" viewBox="0 0 55 30" fill="none" xmlns="http://www.w3.org/2000/svg">
<rect width="54.5593" height="30" rx="4" fill="#101010"/>
<mask id="mask0_1138_104" style="mask-type:luminance" maskUnits="userSpaceOnUse" x="10" y="9" width="34" height="12">
<path d="M43.895 9H10.6643V21H43.895V9Z" fill="white"/>
</mask>
<g mask="url(#mask0_1138_104)">
<path d="M18.4421 17.9745H14.093C14.0605 17.9745 13.9549 18.0816 13.9333 18.1178C13.4224 18.9643 12.9794 19.9018 12.454 20.7335C12.3912 20.8327 12.332 20.922 12.2164 20.9586C12.0412 21.0137 11.1575 21.003 10.9434 20.9806C10.738 20.9592 10.6212 20.8504 10.6791 20.6191L17.0574 9.26219C17.1302 9.14987 17.25 9.01551 17.3839 9L19.6633 9.00792C19.776 9.06098 19.8918 9.16194 19.895 9.30526L19.8931 20.7088C19.8638 20.8466 19.7414 20.9668 19.6088 20.983C19.4266 21.0051 18.9086 21.0067 18.7296 20.9816C18.3246 20.9248 18.4402 20.391 18.443 20.0996C18.4502 19.3915 18.4364 18.6822 18.4421 17.9745ZM18.3913 11.1699C18.3169 11.1013 18.2036 11.1482 18.126 11.1492C17.9444 11.152 17.6675 11.1051 17.5394 11.2657L14.9204 16.2156C14.9062 16.3383 14.9378 16.3782 15.0501 16.389H18.2651C18.34 16.382 18.4067 16.3662 18.4257 16.2798C18.4531 14.6046 18.4531 12.916 18.4257 11.2409C18.4202 11.2219 18.4038 11.1816 18.3913 11.1699Z" fill="white"/>
<path d="M22.9814 11.8834C23.2121 12.1152 23.0888 12.9037 23.6073 12.7759C23.8164 12.7244 24.2844 12.2463 24.5504 12.1021C25.1554 11.7739 26.1757 11.7356 26.8552 11.7893C27.0459 11.8042 27.2226 11.8926 27.2572 12.1006C27.2904 12.301 27.2824 12.9672 27.2612 13.1818C27.2446 13.3505 27.1426 13.4618 26.9893 13.5195C26.2604 13.5494 25.5141 13.4373 24.8175 13.7031C23.8795 14.0608 23.4209 14.8931 23.3513 15.879L23.3521 20.5725C23.3506 20.7649 23.2414 20.9474 23.0441 20.9791C22.8718 21.0069 22.2395 21.0062 22.0635 20.9817C21.9092 20.9605 21.7466 20.805 21.7412 20.6426L21.7433 12.0984C21.7643 11.9441 21.9135 11.813 22.0635 11.7922C22.2134 11.7714 22.6151 11.775 22.7713 11.7907C22.8494 11.7988 22.9255 11.8276 22.9814 11.8834Z" fill="white"/>
<path d="M33.5343 9.01842C33.6678 8.99386 34.3031 8.99386 34.4366 9.01842C34.5431 9.03807 34.6478 9.15928 34.6624 9.27524L34.6643 20.4158C34.6643 20.5492 34.5758 20.673 34.4616 20.7136C34.3452 20.7548 33.8588 20.7519 33.7367 20.7172C33.5253 20.6569 33.4796 20.3844 33.3057 20.2749C32.9746 20.0666 32.6257 20.4344 32.3496 20.5986C31.2852 21.2305 29.7449 21.0975 28.7644 20.3322C26.8739 18.8569 26.8053 14.8581 28.4642 13.1626C29.4535 12.1517 31.1396 11.9358 32.3402 12.6047C32.5656 12.7302 32.8955 13.0332 33.1584 12.9146C33.2476 12.8743 33.2844 12.7853 33.293 12.6844V9.35255C33.2997 9.20416 33.3927 9.04463 33.5343 9.01842ZM30.8073 13.7018C29.0679 13.8312 28.4989 15.6633 28.7359 17.3146C28.9518 18.8169 30.0147 19.7305 31.4217 19.509C33.0747 19.249 33.5882 17.3304 33.2858 15.7554C33.0197 14.3691 32.118 13.6041 30.8073 13.7018Z" fill="white"/>
<path d="M39.9763 11.7818C41.9581 11.6641 43.7824 12.3565 43.895 14.6475L43.8832 20.4619C43.8391 20.6023 43.7255 20.7006 43.5795 20.7137C43.4336 20.7269 42.9515 20.7318 42.8231 20.6921C42.5237 20.5996 42.5331 20.1535 42.1068 20.166C41.8444 20.1736 41.3078 20.5889 41.0257 20.7162C39.8553 21.2433 38.0649 21.0457 37.1804 20.0435C36.4799 19.2498 36.3231 17.9457 36.7364 16.9739C37.6294 14.8734 40.5237 15.6017 42.2851 15.4678C42.3784 15.4502 42.4142 15.4247 42.4229 15.3274C42.5264 14.1797 42.0913 13.389 40.9393 13.2027C40.1509 13.075 38.6248 13.2472 38.3895 14.2132C38.3474 14.3856 38.3889 14.5792 38.1809 14.645C38.0147 14.6975 37.3847 14.6892 37.1892 14.6726C36.8989 14.6481 36.8443 14.5146 36.8574 14.2345C36.9329 12.6353 38.6097 11.8628 39.9763 11.7818ZM39.3776 16.7959C38.576 16.8563 38.0356 17.3085 38.07 18.1734C38.1236 19.5274 39.5552 19.7651 40.6107 19.5633C41.4821 19.3967 42.2699 18.7985 42.4037 17.8564C42.4354 17.6339 42.4468 17.1702 42.4219 16.9484C42.4118 16.8559 42.366 16.7904 42.2689 16.7904C41.3226 16.8394 40.3165 16.7256 39.3776 16.7959Z" fill="white"/>
</g>
</svg>
