<svg width="30" height="30" viewBox="0 0 30 30" fill="none" xmlns="http://www.w3.org/2000/svg">
<rect width="30" height="30" rx="4" fill="white"/>
<mask id="mask0_1138_77" style="mask-type:luminance" maskUnits="userSpaceOnUse" x="8" y="7" width="14" height="16">
<path d="M21.7128 7H8.28723V23H21.7128V7Z" fill="white"/>
</mask>
<g mask="url(#mask0_1138_77)">
<path d="M18.6577 18.966H12.8589C12.8155 18.966 12.6747 19.1088 12.6459 19.157C11.9647 20.2858 11.3741 21.5358 10.6735 22.6447C10.5898 22.777 10.5108 22.896 10.3567 22.9447C10.1232 23.0182 8.94488 23.0039 8.65942 22.9742C8.38556 22.9456 8.22973 22.8005 8.307 22.4922L16.8114 7.34959C16.9084 7.19983 17.0682 7.02068 17.2467 7L20.2859 7.01056C20.4362 7.0813 20.5906 7.21591 20.5949 7.40702L20.5923 22.6117C20.5533 22.7954 20.3901 22.9557 20.2133 22.9774C19.9703 23.0068 19.2797 23.009 19.041 22.9755C18.501 22.8997 18.6551 22.1881 18.6589 21.7995C18.6684 20.8554 18.6501 19.9097 18.6577 18.966ZM18.5899 9.89317C18.4907 9.80172 18.3397 9.86425 18.2362 9.8656C17.9941 9.86929 17.6248 9.80677 17.454 10.0209L13.962 16.6208C13.9431 16.7844 13.9852 16.8377 14.135 16.8519H18.4216C18.5216 16.8427 18.6104 16.8215 18.6358 16.7063C18.6723 14.4727 18.6723 12.2213 18.6358 9.98782C18.6285 9.96258 18.6066 9.9088 18.5899 9.89317Z" fill="#101010"/>
</g>
</svg>
