<svg width="236" height="40" viewBox="0 0 236 40" fill="none" xmlns="http://www.w3.org/2000/svg">
<g filter="url(#filter0_d_2913_83010)">
<rect x="2" y="1" width="232" height="36" rx="4" fill="#171717"/>
<rect x="2" y="1" width="232" height="36" rx="4" fill="url(#paint0_linear_2913_83010)" fill-opacity="0.1"/>
<g clip-path="url(#clip0_2913_83010)">
<path d="M99.1375 24.6675H90.4364C90.3713 24.6675 90.16 24.8687 90.1169 24.9367C89.0947 26.5269 88.2084 28.288 87.1572 29.8503C87.0316 30.0367 86.9131 30.2044 86.6819 30.273C86.3315 30.3765 84.5635 30.3565 84.1351 30.3144C83.7242 30.2743 83.4904 30.0697 83.6063 29.6355L96.3672 8.30137C96.5128 8.09038 96.7524 7.83796 97.0204 7.80884L101.581 7.82372C101.806 7.92339 102.038 8.11303 102.044 8.38227L102.04 29.8037C101.982 30.0626 101.737 30.2885 101.472 30.3189C101.107 30.3603 100.071 30.3636 99.7127 30.3163C98.9024 30.2095 99.1336 29.207 99.1394 28.6595C99.1536 27.3294 99.1266 25.9981 99.1382 24.6687L99.1375 24.6675ZM99.0357 11.885C98.887 11.7562 98.6602 11.8442 98.505 11.8462C98.1417 11.8513 97.5878 11.7633 97.3315 12.0649L92.0917 21.3634C92.0634 21.5938 92.1265 21.6689 92.3513 21.689H98.7833C98.9333 21.676 99.0667 21.6463 99.1047 21.4838C99.1594 18.3371 99.1594 15.1651 99.1047 12.0183C99.0937 11.9827 99.0615 11.9076 99.0364 11.8856L99.0357 11.885Z" fill="#A3A3A3"/>
<path d="M131.152 7.16434C131.438 7.11579 132.798 7.11579 133.084 7.16434C133.312 7.20317 133.536 7.44264 133.568 7.67175L133.572 29.6828C133.572 29.9463 133.382 30.1909 133.138 30.2712C132.888 30.3527 131.847 30.3469 131.585 30.2783C131.133 30.1592 131.035 29.6207 130.662 29.4045C129.953 28.9929 129.206 29.7197 128.615 30.044C126.335 31.2925 123.037 31.0297 120.937 29.5178C116.888 26.6027 116.741 18.7022 120.294 15.3522C122.413 13.3549 126.024 12.9284 128.595 14.25C129.077 14.4979 129.784 15.0966 130.347 14.8623C130.538 14.7827 130.617 14.6066 130.635 14.4073V7.82449C130.649 7.53131 130.848 7.21547 131.151 7.16369L131.152 7.16434ZM125.312 16.4175C121.587 16.6732 120.368 20.2931 120.876 23.5557C121.338 26.5238 123.615 28.3289 126.628 27.8913C130.168 27.3775 131.267 23.5867 130.62 20.4749C130.05 17.7359 128.119 16.224 125.312 16.4169L125.312 16.4175Z" fill="#A3A3A3"/>
<path d="M143.487 13.5303C147.274 13.3096 150.76 14.6086 150.975 18.9067L150.952 29.8155C150.868 30.0789 150.651 30.2634 150.372 30.288C150.093 30.3126 149.172 30.3216 148.926 30.2472C148.354 30.0738 148.373 29.2369 147.558 29.2602C147.057 29.2745 146.031 30.0537 145.492 30.2925C143.256 31.2815 139.835 30.9106 138.145 29.0305C136.806 27.5412 136.507 25.0947 137.297 23.2715C139.003 19.3307 144.533 20.6969 147.898 20.4458C148.077 20.4128 148.145 20.3649 148.162 20.1824C148.36 18.0291 147.528 16.5457 145.327 16.1962C143.821 15.9567 140.905 16.2797 140.455 18.0919C140.375 18.4155 140.454 18.7786 140.057 18.9022C139.739 19.0006 138.535 18.9851 138.162 18.954C137.607 18.908 137.503 18.6576 137.528 18.132C137.672 15.1315 140.876 13.6824 143.487 13.5303ZM142.343 22.9376C140.811 23.0508 139.779 23.8993 139.845 25.5219C139.947 28.0622 142.683 28.5082 144.699 28.1295C146.364 27.8169 147.869 26.6947 148.125 24.9271C148.186 24.5097 148.208 23.6398 148.16 23.2237C148.141 23.0502 148.053 22.9272 147.868 22.9272C146.06 23.0191 144.136 22.8056 142.342 22.9376H142.343Z" fill="#A3A3A3"/>
<path d="M108.77 14.1847C109.183 14.5956 108.962 15.9936 109.889 15.7671C110.262 15.6758 111.098 14.828 111.574 14.5723C112.654 13.9905 114.477 13.9225 115.691 14.0177C116.032 14.0442 116.348 14.2008 116.409 14.5698C116.469 14.9251 116.455 16.1062 116.417 16.4868C116.387 16.7858 116.205 16.9832 115.931 17.0855C114.628 17.1385 113.295 16.9398 112.051 17.411C110.375 18.0453 109.556 19.5209 109.431 21.2691L109.433 29.5909C109.43 29.932 109.235 30.2556 108.882 30.3119C108.575 30.3611 107.445 30.3598 107.131 30.3165C106.855 30.2789 106.564 30.0032 106.555 29.7152L106.559 14.5659C106.596 14.2921 106.863 14.0597 107.131 14.0229C107.398 13.986 108.116 13.9924 108.395 14.0203C108.535 14.0345 108.671 14.0869 108.77 14.186V14.1847Z" fill="#A3A3A3"/>
</g>
</g>
<defs>
<filter id="filter0_d_2913_83010" x="0" y="0" width="236" height="40" filterUnits="userSpaceOnUse" color-interpolation-filters="sRGB">
<feFlood flood-opacity="0" result="BackgroundImageFix"/>
<feColorMatrix in="SourceAlpha" type="matrix" values="0 0 0 0 0 0 0 0 0 0 0 0 0 0 0 0 0 0 127 0" result="hardAlpha"/>
<feOffset dy="1"/>
<feGaussianBlur stdDeviation="1"/>
<feColorMatrix type="matrix" values="0 0 0 0 0 0 0 0 0 0 0 0 0 0 0 0 0 0 0.05 0"/>
<feBlend mode="normal" in2="BackgroundImageFix" result="effect1_dropShadow_2913_83010"/>
<feBlend mode="normal" in="SourceGraphic" in2="effect1_dropShadow_2913_83010" result="shape"/>
</filter>
<linearGradient id="paint0_linear_2913_83010" x1="118" y1="1" x2="118" y2="37" gradientUnits="userSpaceOnUse">
<stop stop-color="white"/>
<stop offset="1" stop-color="white" stop-opacity="0"/>
</linearGradient>
<clipPath id="clip0_2913_83010">
<rect width="67.3986" height="23.7094" fill="white" transform="translate(83.5762 7.12744)"/>
</clipPath>
</defs>
</svg>
