<svg width="45" height="30" viewBox="0 0 45 30" fill="none" xmlns="http://www.w3.org/2000/svg">
<rect width="45" height="30" rx="4" fill="#FC5A29"/>
<g clip-path="url(#clip0_309_27188)">
<path d="M13.426 18.7224H8.71444C8.67921 18.7224 8.56481 18.8384 8.54145 18.8776C7.98795 19.7947 7.50804 20.8103 6.93884 21.7113C6.87083 21.8188 6.80666 21.9155 6.68145 21.9551C6.49171 22.0148 5.53434 22.0032 5.3024 21.979C5.07989 21.9558 4.95328 21.8379 5.01606 21.5874L11.9259 9.28404C12.0047 9.16236 12.1345 9.0168 12.2796 9L14.7489 9.00858C14.871 9.06606 14.9965 9.17543 15 9.3307L14.9979 21.6845C14.9662 21.8338 14.8336 21.964 14.6899 21.9816C14.4925 22.0055 13.9314 22.0073 13.7374 21.9801C13.2987 21.9185 13.4239 21.3403 13.427 21.0246C13.4347 20.2575 13.4201 19.4898 13.4263 18.7231L13.426 18.7224ZM13.3709 11.3507C13.2903 11.2764 13.1676 11.3272 13.0835 11.3283C12.8868 11.3313 12.5868 11.2805 12.448 11.4545L9.61078 16.8169C9.59543 16.9498 9.62961 16.9931 9.75134 17.0047H13.2342C13.3154 16.9972 13.3876 16.98 13.4082 16.8864C13.4379 15.0716 13.4379 13.2423 13.4082 11.4276C13.4023 11.4071 13.3848 11.3638 13.3712 11.3511L13.3709 11.3507Z" fill="white"/>
<path d="M18.3436 12.1237C18.5935 12.3748 18.4599 13.229 19.0216 13.0906C19.2481 13.0348 19.7551 12.5168 20.0433 12.3606C20.6987 12.0051 21.804 11.9636 22.5402 12.0217C22.7468 12.0379 22.9382 12.1336 22.9757 12.359C23.0116 12.5761 23.003 13.2978 22.98 13.5303C22.962 13.713 22.8515 13.8336 22.6855 13.8961C21.8958 13.9285 21.0873 13.8071 20.3327 14.095C19.3165 14.4825 18.8197 15.3842 18.7443 16.4523L18.7451 21.5369C18.7435 21.7453 18.6252 21.943 18.4115 21.9774C18.2248 22.0075 17.5398 22.0067 17.3492 21.9802C17.182 21.9572 17.0059 21.7888 17 21.6128L17.0023 12.3566C17.025 12.1894 17.1867 12.0474 17.3492 12.0249C17.5116 12.0023 17.9467 12.0063 18.1159 12.0233C18.2006 12.032 18.283 12.064 18.3436 12.1245V12.1237Z" fill="white"/>
<path d="M29.7759 9.01996C29.9205 8.99335 30.6087 8.99335 30.7533 9.01996C30.8687 9.04125 30.9821 9.17256 30.998 9.29818L31 21.3671C31 21.5116 30.9042 21.6457 30.7804 21.6897C30.6543 21.7344 30.1274 21.7312 29.9951 21.6936C29.7661 21.6283 29.7166 21.3331 29.5282 21.2145C29.1695 20.9888 28.7915 21.3873 28.4924 21.5651C27.3393 22.2497 25.6707 22.1056 24.6085 21.2766C22.5604 19.6783 22.4861 15.3463 24.2833 13.5095C25.355 12.4143 27.1816 12.1805 28.4823 12.9051C28.7264 13.041 29.0838 13.3693 29.3686 13.2408C29.4653 13.1972 29.5051 13.1007 29.5145 12.9914V9.38193C29.5217 9.22118 29.6221 9.048 29.7755 9.01961L29.7759 9.01996ZM26.8216 14.0936C24.9373 14.2338 24.3208 16.2186 24.5776 18.0075C24.8115 19.635 25.963 20.6247 27.4872 20.3848C29.278 20.1031 29.8342 18.0246 29.5067 16.3183C29.2184 14.8165 28.2418 13.9875 26.8219 14.0933L26.8216 14.0936Z" fill="white"/>
<path d="M36.7547 12.0136C38.9016 11.8861 40.878 12.6362 41 15.1181L40.9872 21.4171C40.9394 21.5692 40.8163 21.6757 40.6582 21.6899C40.5001 21.7041 39.9778 21.7094 39.8387 21.6664C39.5144 21.5662 39.5246 21.083 39.0627 21.0965C38.7785 21.1047 38.1972 21.5546 37.8915 21.6926C36.6236 22.2636 34.684 22.0495 33.7258 20.9638C32.9669 20.1039 32.7971 18.6912 33.2448 17.6384C34.2122 15.3629 37.3477 16.1518 39.2559 16.0068C39.357 15.9877 39.3957 15.9601 39.4052 15.8547C39.5173 14.6113 39.0459 13.7547 37.798 13.5529C36.9438 13.4146 35.2906 13.6011 35.0357 14.6476C34.9901 14.8344 35.035 15.0441 34.8097 15.1154C34.6296 15.1723 33.9471 15.1633 33.7353 15.1453C33.4208 15.1188 33.3617 14.9742 33.3759 14.6707C33.4577 12.9382 35.2742 12.1014 36.7547 12.0136ZM36.1061 17.4456C35.2377 17.511 34.6523 18.0009 34.6895 18.9379C34.7476 20.4047 36.2985 20.6622 37.442 20.4436C38.386 20.2631 39.2394 19.615 39.3844 18.5944C39.4187 18.3534 39.4311 17.8511 39.4041 17.6108C39.3932 17.5106 39.3435 17.4396 39.2383 17.4396C38.2132 17.4927 37.1228 17.3694 36.1057 17.4456H36.1061Z" fill="white"/>
</g>
<defs>
<clipPath id="clip0_309_27188">
<rect width="36" height="13" fill="white" transform="translate(5 9)"/>
</clipPath>
</defs>
</svg>
