<svg width="256" height="64" viewBox="0 0 256 64" fill="none" xmlns="http://www.w3.org/2000/svg">
<g filter="url(#filter0_d_1818_10232)">
<rect x="12" y="14" width="232" height="36" rx="4" fill="white"/>
<rect x="12" y="14" width="232" height="36" rx="4" fill="url(#paint0_linear_1818_10232)" fill-opacity="0.05"/>
<g clip-path="url(#clip0_1818_10232)">
<path d="M109.137 37.6682H100.436C100.371 37.6682 100.16 37.8695 100.117 37.9374C99.0947 39.5276 98.2084 41.2887 97.1572 42.8511C97.0316 43.0375 96.9131 43.2051 96.6819 43.2737C96.3315 43.3773 94.5634 43.3572 94.1351 43.3151C93.7242 43.275 93.4904 43.0705 93.6063 42.6362L106.367 21.3021C106.513 21.0911 106.752 20.8387 107.02 20.8096L111.581 20.8245C111.806 20.9241 112.038 21.1138 112.044 21.383L112.04 42.8045C111.982 43.0634 111.737 43.2892 111.472 43.3197C111.107 43.3611 110.071 43.3643 109.713 43.3171C108.902 43.2103 109.134 42.2077 109.139 41.6602C109.154 40.3302 109.127 38.9989 109.138 37.6695L109.137 37.6682ZM109.036 24.8857C108.887 24.7569 108.66 24.8449 108.505 24.8469C108.142 24.8521 107.588 24.764 107.331 25.0656L102.092 34.3642C102.063 34.5946 102.126 34.6696 102.351 34.6897H108.783C108.933 34.6768 109.067 34.647 109.105 34.4845C109.159 31.3378 109.159 28.1658 109.105 25.019C109.094 24.9834 109.061 24.9084 109.036 24.8864L109.036 24.8857Z" fill="#737373"/>
<path d="M141.152 20.1643C141.438 20.1158 142.798 20.1158 143.084 20.1643C143.312 20.2032 143.536 20.4426 143.568 20.6718L143.572 42.6828C143.572 42.9463 143.382 43.1909 143.138 43.2712C142.888 43.3527 141.847 43.3469 141.585 43.2783C141.133 43.1592 141.035 42.6207 140.662 42.4045C139.953 41.9929 139.206 42.7197 138.615 43.044C136.335 44.2925 133.037 44.0297 130.937 42.5178C126.888 39.6027 126.741 31.7022 130.294 28.3522C132.413 26.3549 136.024 25.9284 138.595 27.25C139.077 27.4979 139.784 28.0966 140.347 27.8623C140.538 27.7827 140.617 27.6066 140.635 27.4073V20.8245C140.649 20.5313 140.848 20.2155 141.151 20.1637L141.152 20.1643ZM135.312 29.4175C131.587 29.6732 130.368 33.2931 130.876 36.5557C131.338 39.5238 133.615 41.3289 136.628 40.8913C140.168 40.3775 141.267 36.5867 140.62 33.4749C140.05 30.7359 138.119 29.224 135.312 29.4169L135.312 29.4175Z" fill="#737373"/>
<path d="M153.487 26.5303C157.274 26.3096 160.76 27.6086 160.975 31.9067L160.952 42.8155C160.868 43.0789 160.651 43.2634 160.372 43.288C160.093 43.3126 159.172 43.3216 158.926 43.2472C158.354 43.0738 158.372 42.2369 157.558 42.2602C157.057 42.2745 156.031 43.0537 155.492 43.2925C153.256 44.2815 149.835 43.9106 148.145 42.0305C146.806 40.5412 146.507 38.0947 147.297 36.2715C149.003 32.3307 154.533 33.6969 157.898 33.4458C158.077 33.4128 158.145 33.3649 158.162 33.1824C158.36 31.0291 157.528 29.5457 155.327 29.1962C153.821 28.9567 150.905 29.2797 150.455 31.0919C150.375 31.4155 150.454 31.7786 150.057 31.9022C149.739 32.0006 148.535 31.9851 148.162 31.954C147.607 31.908 147.503 31.6576 147.528 31.132C147.672 28.1315 150.876 26.6824 153.487 26.5303ZM152.343 35.9376C150.811 36.0508 149.779 36.8993 149.845 38.5219C149.947 41.0622 152.683 41.5082 154.699 41.1295C156.364 40.8169 157.869 39.6947 158.125 37.9271C158.186 37.5097 158.208 36.6398 158.16 36.2237C158.141 36.0502 158.053 35.9272 157.868 35.9272C156.06 36.0191 154.136 35.8056 152.342 35.9376H152.343Z" fill="#737373"/>
<path d="M118.77 27.1849C119.182 27.5959 118.962 28.9939 119.888 28.7673C120.262 28.6761 121.098 27.8282 121.573 27.5726C122.654 26.9907 124.477 26.9228 125.691 27.0179C126.032 27.0445 126.347 27.2011 126.409 27.57C126.468 27.9253 126.454 29.1065 126.416 29.487C126.386 29.7861 126.204 29.9835 125.93 30.0857C124.628 30.1388 123.295 29.9401 122.05 30.4113C120.374 31.0455 119.555 32.5212 119.431 34.2693L119.432 42.5912C119.43 42.9323 119.234 43.2559 118.882 43.3122C118.574 43.3614 117.444 43.3601 117.13 43.3167C116.854 43.2792 116.564 43.0034 116.554 42.7154L116.558 27.5661C116.596 27.2923 116.862 27.06 117.13 27.0231C117.398 26.9862 118.116 26.9927 118.394 27.0205C118.534 27.0348 118.67 27.0872 118.77 27.1862V27.1849Z" fill="#737373"/>
</g>
</g>
<defs>
<filter id="filter0_d_1818_10232" x="10" y="13" width="236" height="40" filterUnits="userSpaceOnUse" color-interpolation-filters="sRGB">
<feFlood flood-opacity="0" result="BackgroundImageFix"/>
<feColorMatrix in="SourceAlpha" type="matrix" values="0 0 0 0 0 0 0 0 0 0 0 0 0 0 0 0 0 0 127 0" result="hardAlpha"/>
<feOffset dy="1"/>
<feGaussianBlur stdDeviation="1"/>
<feColorMatrix type="matrix" values="0 0 0 0 0 0 0 0 0 0 0 0 0 0 0 0 0 0 0.05 0"/>
<feBlend mode="normal" in2="BackgroundImageFix" result="effect1_dropShadow_1818_10232"/>
<feBlend mode="normal" in="SourceGraphic" in2="effect1_dropShadow_1818_10232" result="shape"/>
</filter>
<linearGradient id="paint0_linear_1818_10232" x1="128" y1="14" x2="128" y2="50" gradientUnits="userSpaceOnUse">
<stop stop-color="#171717" stop-opacity="0"/>
<stop offset="1" stop-color="#FC5A29"/>
</linearGradient>
<clipPath id="clip0_1818_10232">
<rect width="67.3986" height="23.7094" fill="white" transform="translate(93.576 20.1279)"/>
</clipPath>
</defs>
</svg>
