<svg width="39" height="38" viewBox="0 0 39 38" fill="none" xmlns="http://www.w3.org/2000/svg">
<g filter="url(#filter0_d_2913_19094)">
<rect x="2" y="1" width="35" height="34" rx="4" fill="#171717"/>
<rect x="2" y="1" width="35" height="34" rx="4" fill="url(#paint0_linear_2913_19094)" fill-opacity="0.1"/>
<g clip-path="url(#clip0_2913_19094)">
<g clip-path="url(#clip1_2913_19094)">
<path d="M25.1375 24.6675H16.4363C16.3713 24.6675 16.16 24.8687 16.1169 24.9367C15.0947 26.5269 14.2084 28.288 13.1572 29.8503C13.0316 30.0367 12.9131 30.2044 12.6819 30.273C12.3315 30.3765 10.5634 30.3565 10.1351 30.3144C9.72416 30.2743 9.49035 30.0697 9.60629 29.6355L22.3672 8.30137C22.5128 8.09038 22.7524 7.83796 23.0203 7.80884L27.5806 7.82372C27.806 7.92339 28.0379 8.11303 28.0443 8.38227L28.0404 29.8037C27.9818 30.0626 27.7371 30.2885 27.4717 30.3189C27.1071 30.3603 26.0708 30.3636 25.7127 30.3163C24.9024 30.2095 25.1336 29.207 25.1394 28.6595C25.1536 27.3294 25.1265 25.9981 25.1381 24.6687L25.1375 24.6675ZM25.0357 11.885C24.8869 11.7562 24.6602 11.8442 24.505 11.8462C24.1417 11.8513 23.5878 11.7633 23.3314 12.0649L18.0917 21.3634C18.0633 21.5938 18.1265 21.6689 18.3512 21.689H24.7832C24.9333 21.676 25.0666 21.6463 25.1046 21.4838C25.1594 18.3371 25.1594 15.1651 25.1046 12.0183C25.0937 11.9827 25.0615 11.9076 25.0364 11.8856L25.0357 11.885Z" fill="#A3A3A3"/>
</g>
</g>
</g>
<defs>
<filter id="filter0_d_2913_19094" x="0" y="0" width="39" height="38" filterUnits="userSpaceOnUse" color-interpolation-filters="sRGB">
<feFlood flood-opacity="0" result="BackgroundImageFix"/>
<feColorMatrix in="SourceAlpha" type="matrix" values="0 0 0 0 0 0 0 0 0 0 0 0 0 0 0 0 0 0 127 0" result="hardAlpha"/>
<feOffset dy="1"/>
<feGaussianBlur stdDeviation="1"/>
<feColorMatrix type="matrix" values="0 0 0 0 0 0 0 0 0 0 0 0 0 0 0 0 0 0 0.05 0"/>
<feBlend mode="normal" in2="BackgroundImageFix" result="effect1_dropShadow_2913_19094"/>
<feBlend mode="normal" in="SourceGraphic" in2="effect1_dropShadow_2913_19094" result="shape"/>
</filter>
<linearGradient id="paint0_linear_2913_19094" x1="19.5" y1="1" x2="19.5" y2="35" gradientUnits="userSpaceOnUse">
<stop stop-color="white"/>
<stop offset="1" stop-color="white" stop-opacity="0"/>
</linearGradient>
<clipPath id="clip0_2913_19094">
<rect width="20" height="22" fill="white" transform="translate(9.5 7)"/>
</clipPath>
<clipPath id="clip1_2913_19094">
<rect width="67.3986" height="23.7094" fill="white" transform="translate(9.57602 7.12744)"/>
</clipPath>
</defs>
</svg>
