<svg width="58" height="36" viewBox="0 0 58 36" fill="none" xmlns="http://www.w3.org/2000/svg">
<path d="M47.9954 27.2775C47.1449 27.2775 46.3788 27.1224 45.6973 26.8122C45.0215 26.496 44.4856 26.0307 44.0895 25.4162C43.6992 24.8017 43.5041 24.044 43.5041 23.1432C43.5041 22.3676 43.6439 21.7263 43.9235 21.2191C44.2031 20.712 44.5847 20.3064 45.0682 20.0021C45.5517 19.6978 46.0963 19.4682 46.7021 19.313C47.3138 19.152 47.9458 19.0356 48.5983 18.964C49.3847 18.8805 50.0226 18.8059 50.5119 18.7403C51.0012 18.6687 51.3566 18.5613 51.5779 18.4182C51.8051 18.269 51.9187 18.0393 51.9187 17.7291V17.6754C51.9187 17.0013 51.7236 16.4792 51.3333 16.1093C50.943 15.7395 50.3808 15.5545 49.6468 15.5545C48.8721 15.5545 48.2575 15.7275 47.8031 16.0736C47.3546 16.4196 47.0517 16.8282 46.8944 17.2995L43.941 16.87C44.174 16.0348 44.5584 15.3368 45.0944 14.776C45.6303 14.2092 46.2856 13.7856 47.0604 13.5052C47.8352 13.2189 48.6915 13.0757 49.6294 13.0757C50.276 13.0757 50.9197 13.1532 51.5604 13.3084C52.2012 13.4635 52.7867 13.72 53.3168 14.078C53.8469 14.4299 54.2721 14.9102 54.5925 15.5187C54.9187 16.1272 55.0818 16.8879 55.0818 17.8007V27.0001H52.041V25.1119H51.9362C51.7439 25.4937 51.4731 25.8517 51.1236 26.1858C50.7799 26.5139 50.3459 26.7794 49.8216 26.9822C49.3031 27.1791 48.6944 27.2775 47.9954 27.2775ZM48.8167 24.8971C49.4517 24.8971 50.0022 24.7689 50.4682 24.5123C50.9342 24.2498 51.2925 23.9038 51.543 23.4743C51.7993 23.0447 51.9274 22.5764 51.9274 22.0693V20.4495C51.8284 20.5331 51.6595 20.6106 51.4206 20.6822C51.1876 20.7538 50.9255 20.8165 50.6342 20.8701C50.343 20.9238 50.0546 20.9716 49.7692 21.0133C49.4837 21.0551 49.2362 21.0909 49.0264 21.1207C48.5546 21.1863 48.1323 21.2937 47.7594 21.4429C47.3866 21.592 47.0924 21.8008 46.8769 22.0693C46.6614 22.3318 46.5536 22.6718 46.5536 23.0895C46.5536 23.6861 46.7662 24.1365 47.1915 24.4407C47.6167 24.745 48.1585 24.8971 48.8167 24.8971Z" fill="black"/>
<path d="M33.6149 27.2417C32.5605 27.2417 31.6168 26.9643 30.7838 26.4095C29.9508 25.8547 29.2925 25.0493 28.809 23.9933C28.3255 22.9373 28.0838 21.6547 28.0838 20.1453C28.0838 18.618 28.3284 17.3294 28.8178 16.2794C29.3129 15.2234 29.9799 14.427 30.8187 13.89C31.6576 13.3471 32.5926 13.0757 33.6236 13.0757C34.41 13.0757 35.0567 13.2129 35.5635 13.4873C36.0703 13.7558 36.4722 14.0809 36.7693 14.4628C37.0664 14.8386 37.2965 15.1936 37.4596 15.5277H37.5907V8.67285H40.7625V27.0001H37.6518V24.8345H37.4596C37.2965 25.1686 37.0606 25.5236 36.7518 25.8994C36.4431 26.2693 36.0353 26.5855 35.5285 26.848C35.0217 27.1105 34.3838 27.2417 33.6149 27.2417ZM34.4974 24.5839C35.1673 24.5839 35.7382 24.399 36.2101 24.0291C36.6819 23.6532 37.0402 23.1312 37.2848 22.4631C37.5295 21.7949 37.6518 21.0163 37.6518 20.1274C37.6518 19.2385 37.5295 18.4659 37.2848 17.8096C37.046 17.1534 36.6907 16.6433 36.2188 16.2794C35.7528 15.9155 35.179 15.7335 34.4974 15.7335C33.7926 15.7335 33.2042 15.9214 32.7324 16.2973C32.2605 16.6731 31.9052 17.1922 31.6663 17.8544C31.4275 18.5166 31.3081 19.2743 31.3081 20.1274C31.3081 20.9865 31.4275 21.7531 31.6663 22.4273C31.911 23.0954 32.2692 23.6234 32.7411 24.0112C33.2188 24.393 33.8042 24.5839 34.4974 24.5839Z" fill="black"/>
<path d="M19.431 26.9999V13.2545H22.498V15.5454H22.6378C22.8825 14.7519 23.3019 14.1404 23.8961 13.7109C24.4961 13.2754 25.1806 13.0576 25.9495 13.0576C26.1243 13.0576 26.3194 13.0666 26.535 13.0845C26.7563 13.0964 26.9398 13.1173 27.0855 13.1471V16.1271C26.9515 16.0793 26.7389 16.0376 26.4476 16.0018C26.1621 15.96 25.8854 15.9392 25.6175 15.9392C25.0408 15.9392 24.5223 16.0674 24.0621 16.324C23.6078 16.5745 23.2495 16.9235 22.9874 17.371C22.7252 17.8184 22.5942 18.3345 22.5942 18.9191V26.9999H19.431Z" fill="black"/>
<path d="M4.06315 27.0001H0.602921L6.90298 8.67285H10.905L17.2138 27.0001H13.7535L8.97387 12.4314H8.83407L4.06315 27.0001ZM4.17674 19.8142H13.6137V22.481H4.17674V19.8142Z" fill="black"/>
</svg>
