<svg width="24" height="24" viewBox="0 0 24 24" fill="none" xmlns="http://www.w3.org/2000/svg">
<rect width="24" height="24" rx="4" fill="#101010"/>
<mask id="mask0_1138_86" style="mask-type:luminance" maskUnits="userSpaceOnUse" x="6" y="6" width="12" height="12">
<path d="M17.0346 6H6.96542V18H17.0346V6Z" fill="white"/>
</mask>
<g mask="url(#mask0_1138_86)">
<path d="M14.7433 14.9745H10.3941C10.3616 14.9745 10.256 15.0816 10.2345 15.1178C9.72353 15.9643 9.28054 16.9018 8.75512 17.7335C8.69235 17.8327 8.63311 17.922 8.51753 17.9586C8.34239 18.0137 7.45866 18.003 7.24456 17.9806C7.03917 17.9592 6.9223 17.8504 6.98025 17.6191L13.3586 6.26219C13.4313 6.14987 13.5511 6.01551 13.6851 6L15.9644 6.00792C16.0771 6.06098 16.193 6.16194 16.1962 6.30526L16.1943 17.7088C16.165 17.8466 16.0426 17.9668 15.9099 17.983C15.7277 18.0051 15.2098 18.0067 15.0307 17.9816C14.6258 17.9248 14.7413 17.391 14.7442 17.0996C14.7513 16.3915 14.7375 15.6822 14.7433 14.9745ZM14.6924 8.16988C14.618 8.10129 14.5047 8.14819 14.4271 8.1492C14.2455 8.15197 13.9686 8.10508 13.8405 8.26569L11.2215 13.2156C11.2074 13.3383 11.2389 13.3782 11.3513 13.389H14.5662C14.6412 13.382 14.7078 13.3662 14.7268 13.2798C14.7543 11.6046 14.7543 9.91597 14.7268 8.24086C14.7214 8.22194 14.705 8.1816 14.6924 8.16988Z" fill="white"/>
</g>
</svg>
