<svg width="34" height="12" viewBox="0 0 34 12" fill="none" xmlns="http://www.w3.org/2000/svg">
<mask id="mask0_1140_150" style="mask-type:luminance" maskUnits="userSpaceOnUse" x="0" y="0" width="34" height="12">
<path d="M33.2308 0H0V12H33.2308V0Z" fill="white"/>
</mask>
<g mask="url(#mask0_1140_150)">
<path d="M7.77785 8.97452H3.42872C3.3962 8.97452 3.2906 9.0816 3.26903 9.11778C2.75811 9.96434 2.31512 10.9018 1.7897 11.7335C1.72692 11.8327 1.66769 11.922 1.55211 11.9586C1.37697 12.0137 0.493239 12.003 0.279141 11.9806C0.0737468 11.9592 -0.0431242 11.8504 0.0148266 11.6191L6.39314 0.262191C6.46588 0.149871 6.58569 0.0155077 6.71963 0L8.99899 0.00792019C9.11169 0.0609787 9.22754 0.161935 9.23077 0.305261L9.22883 11.7088C9.19957 11.8466 9.07717 11.9668 8.94453 11.983C8.76231 12.0051 8.24437 12.0067 8.06529 11.9816C7.66034 11.9248 7.77591 11.391 7.77877 11.0996C7.78588 10.3915 7.77212 9.68225 7.77785 8.97452ZM7.72699 2.16988C7.65259 2.10129 7.53932 2.14819 7.46169 2.1492C7.28012 2.15197 7.0032 2.10508 6.87508 2.26569L4.25611 7.2156C4.24194 7.33828 4.27349 7.37825 4.38585 7.38895H7.6008C7.67576 7.38203 7.7424 7.36615 7.76142 7.27975C7.78883 5.60455 7.78883 3.91597 7.76142 2.24086C7.75597 2.22194 7.73954 2.1816 7.72699 2.16988Z" fill="white"/>
<path d="M12.3172 2.88342C12.5478 3.11521 12.4245 3.9037 12.943 3.77594C13.1521 3.72444 13.6201 3.24628 13.8861 3.1021C14.4911 2.77394 15.5114 2.73564 16.1909 2.78927C16.3817 2.80422 16.5583 2.89256 16.593 3.10062C16.6261 3.30102 16.6181 3.96721 16.5969 4.18182C16.5803 4.35047 16.4783 4.46179 16.3251 4.51948C15.5961 4.54939 14.8498 4.43733 14.1533 4.70308C13.2152 5.06078 12.7566 5.89311 12.687 6.87905L12.6878 11.5725C12.6863 11.7649 12.5771 11.9474 12.3798 11.9791C12.2075 12.0069 11.5752 12.0062 11.3993 11.9817C11.2449 11.9605 11.0824 11.8051 11.0769 11.6426L11.079 3.09841C11.1 2.94407 11.2493 2.81299 11.3993 2.79222C11.5492 2.77136 11.9508 2.77505 12.107 2.79074C12.1852 2.79878 12.2612 2.82758 12.3172 2.88342Z" fill="white"/>
<path d="M22.8701 0.0184223C23.0035 -0.00614077 23.6388 -0.00614077 23.7723 0.0184223C23.8788 0.0380746 23.9835 0.159283 23.9982 0.27524L24 11.4158C24 11.5492 23.9116 11.673 23.7973 11.7136C23.6809 11.7548 23.1945 11.7519 23.0724 11.7172C22.861 11.6569 22.8153 11.3844 22.6414 11.2749C22.3103 11.0666 21.9614 11.4344 21.6853 11.5986C20.6209 12.2305 19.0806 12.0975 18.1002 11.3322C16.2096 9.85689 16.141 5.85812 17.8 4.16261C18.7892 3.15166 20.4753 2.93584 21.676 3.6047C21.9013 3.73015 22.2312 4.0332 22.4941 3.91458C22.5834 3.87434 22.6201 3.78526 22.6288 3.68437V0.352548C22.6354 0.204164 22.7285 0.0446285 22.8701 0.0184223ZM20.143 4.70178C18.4037 4.8312 17.8346 6.66332 18.0716 8.31461C18.2875 9.81692 19.3505 10.7305 20.7574 10.509C22.4105 10.249 22.9239 8.3304 22.6216 6.75535C22.3554 5.36907 21.4537 4.60412 20.143 4.70178Z" fill="white"/>
<path d="M29.312 2.78178C31.2938 2.66409 33.1181 3.35649 33.2308 5.64747L33.2189 11.4619C33.1748 11.6023 33.0612 11.7006 32.9152 11.7137C32.7693 11.7269 32.2872 11.7317 32.1588 11.6921C31.8594 11.5996 31.8688 11.1535 31.4425 11.166C31.1801 11.1736 30.6436 11.5889 30.3614 11.7162C29.191 12.2433 27.4006 12.0457 26.5161 11.0435C25.8156 10.2497 25.6589 8.94571 26.0721 7.9739C26.9651 5.87344 29.8594 6.60165 31.6208 6.46781C31.7141 6.45018 31.7499 6.4247 31.7586 6.32741C31.8621 5.17965 31.427 4.38895 30.2751 4.20267C29.4866 4.07501 27.9605 4.24716 27.7253 5.21316C27.6832 5.38559 27.7246 5.57916 27.5166 5.64498C27.3504 5.6975 26.7204 5.68919 26.5249 5.67258C26.2346 5.64812 26.18 5.51464 26.1931 5.23449C26.2686 3.63525 27.9454 2.86282 29.312 2.78178ZM28.7133 7.79593C27.9117 7.8563 27.3713 8.30852 27.4057 9.17344C27.4593 10.5274 28.8909 10.7651 29.9465 10.5633C30.8178 10.3967 31.6056 9.79845 31.7394 8.85636C31.7711 8.6339 31.7825 8.17024 31.7576 7.94842C31.7476 7.85593 31.7017 7.79039 31.6046 7.79039C30.6583 7.83941 29.6522 7.72559 28.7133 7.79593Z" fill="white"/>
</g>
</svg>
