<svg width="50" height="24" viewBox="0 0 50 24" fill="none" xmlns="http://www.w3.org/2000/svg">
<rect width="50" height="24" rx="4" fill="white"/>
<mask id="mask0_1138_56" style="mask-type:luminance" maskUnits="userSpaceOnUse" x="8" y="6" width="34" height="12">
<path d="M41.2308 6H8V18H41.2308V6Z" fill="white"/>
</mask>
<g mask="url(#mask0_1138_56)">
<path d="M15.7778 14.9745H11.4287C11.3962 14.9745 11.2906 15.0816 11.269 15.1178C10.7581 15.9643 10.3151 16.9018 9.7897 17.7335C9.72692 17.8327 9.66769 17.922 9.55211 17.9586C9.37697 18.0137 8.49324 18.003 8.27914 17.9806C8.07375 17.9592 7.95688 17.8504 8.01483 17.6191L14.3931 6.26219C14.4659 6.14987 14.5857 6.01551 14.7196 6L16.999 6.00792C17.1117 6.06098 17.2275 6.16194 17.2308 6.30526L17.2288 17.7088C17.1996 17.8466 17.0772 17.9668 16.9445 17.983C16.7623 18.0051 16.2444 18.0067 16.0653 17.9816C15.6603 17.9248 15.7759 17.391 15.7788 17.0996C15.7859 16.3915 15.7721 15.6822 15.7778 14.9745ZM15.727 8.16988C15.6526 8.10129 15.5393 8.14819 15.4617 8.1492C15.2801 8.15197 15.0032 8.10508 14.8751 8.26569L12.2561 13.2156C12.2419 13.3383 12.2735 13.3782 12.3859 13.389H15.6008C15.6758 13.382 15.7424 13.3662 15.7614 13.2798C15.7888 11.6046 15.7888 9.91597 15.7614 8.24086C15.756 8.22194 15.7395 8.1816 15.727 8.16988Z" fill="#FC5A29"/>
<path d="M20.3172 8.88341C20.5478 9.1152 20.4245 9.90369 20.943 9.77594C21.1521 9.72443 21.6201 9.24628 21.8861 9.10209C22.4911 8.77394 23.5114 8.73563 24.1909 8.78926C24.3817 8.80421 24.5583 8.89255 24.593 9.10061C24.6261 9.30101 24.6181 9.9672 24.5969 10.1818C24.5803 10.3505 24.4783 10.4618 24.3251 10.5195C23.5961 10.5494 22.8498 10.4373 22.1533 10.7031C21.2152 11.0608 20.7566 11.8931 20.687 12.879L20.6878 17.5725C20.6863 17.7649 20.5771 17.9474 20.3798 17.9791C20.2075 18.0069 19.5752 18.0062 19.3993 17.9817C19.2449 17.9605 19.0824 17.805 19.0769 17.6426L19.079 9.0984C19.1 8.94406 19.2493 8.81298 19.3993 8.79221C19.5492 8.77135 19.9508 8.77504 20.107 8.79074C20.1852 8.79877 20.2612 8.82757 20.3172 8.88341Z" fill="#FC5A29"/>
<path d="M30.8701 6.01842C31.0035 5.99386 31.6388 5.99386 31.7723 6.01842C31.8788 6.03807 31.9835 6.15928 31.9982 6.27524L32 17.4158C32 17.5492 31.9116 17.673 31.7973 17.7136C31.6809 17.7548 31.1945 17.7519 31.0724 17.7172C30.861 17.6569 30.8153 17.3844 30.6414 17.2749C30.3103 17.0666 29.9614 17.4344 29.6853 17.5986C28.6209 18.2305 27.0806 18.0975 26.1002 17.3322C24.2096 15.8569 24.141 11.8581 25.8 10.1626C26.7892 9.15166 28.4753 8.93584 29.676 9.6047C29.9013 9.73015 30.2312 10.0332 30.4941 9.91458C30.5834 9.87434 30.6201 9.78526 30.6288 9.68437V6.35255C30.6354 6.20416 30.7285 6.04463 30.8701 6.01842ZM28.143 10.7018C26.4037 10.8312 25.8346 12.6633 26.0716 14.3146C26.2875 15.8169 27.3505 16.7305 28.7574 16.509C30.4105 16.249 30.9239 14.3304 30.6216 12.7554C30.3554 11.3691 29.4537 10.6041 28.143 10.7018Z" fill="#FC5A29"/>
<path d="M37.312 8.78178C39.2938 8.66409 41.1181 9.35649 41.2308 11.6475L41.2189 17.4619C41.1748 17.6023 41.0612 17.7006 40.9152 17.7137C40.7693 17.7269 40.2872 17.7317 40.1588 17.6921C39.8594 17.5996 39.8688 17.1535 39.4425 17.166C39.1801 17.1736 38.6436 17.5889 38.3614 17.7162C37.191 18.2433 35.4006 18.0457 34.5161 17.0435C33.8156 16.2497 33.6589 14.9457 34.0721 13.9739C34.9651 11.8734 37.8594 12.6017 39.6208 12.4678C39.7141 12.4502 39.7499 12.4247 39.7586 12.3274C39.8621 11.1797 39.427 10.3889 38.2751 10.2027C37.4866 10.075 35.9605 10.2472 35.7253 11.2132C35.6832 11.3856 35.7246 11.5792 35.5166 11.645C35.3504 11.6975 34.7204 11.6892 34.5249 11.6726C34.2346 11.6481 34.18 11.5146 34.1931 11.2345C34.2686 9.63525 35.9454 8.86282 37.312 8.78178ZM36.7133 13.7959C35.9117 13.8563 35.3713 14.3085 35.4057 15.1734C35.4593 16.5274 36.8909 16.7651 37.9465 16.5633C38.8178 16.3967 39.6056 15.7985 39.7394 14.8564C39.7711 14.6339 39.7825 14.1702 39.7576 13.9484C39.7476 13.8559 39.7017 13.7904 39.6046 13.7904C38.6583 13.8394 37.6522 13.7256 36.7133 13.7959Z" fill="#FC5A29"/>
</g>
</svg>
